<mxfile host="app.diagrams.net" modified="2023-08-22T08:19:20.016Z" agent="Mozilla/5.0 (Windows NT 10.0; Win64; x64) AppleWebKit/537.36 (KHTML, like Gecko) Chrome/116.0.0.0 Safari/537.36" etag="aPY4ROx_9rFCOeBc1O-n" version="21.6.8" type="github">
  <diagram name="Page-1" id="lz2KgSC_gfir5A06ccJP">
    <mxGraphModel dx="1257" dy="1783" grid="1" gridSize="10" guides="1" tooltips="1" connect="1" arrows="1" fold="1" page="1" pageScale="1" pageWidth="850" pageHeight="1100" math="0" shadow="0">
      <root>
        <mxCell id="0" />
        <mxCell id="1" parent="0" />
        <mxCell id="MlZ9HkGV06P442Ydl8Ns-32" value="" style="rounded=0;whiteSpace=wrap;html=1;rotation=-90;" vertex="1" parent="1">
          <mxGeometry x="75" y="-868.75" width="700" height="382.5" as="geometry" />
        </mxCell>
        <mxCell id="MlZ9HkGV06P442Ydl8Ns-67" style="edgeStyle=orthogonalEdgeStyle;rounded=0;orthogonalLoop=1;jettySize=auto;html=1;entryX=0;entryY=0.5;entryDx=0;entryDy=0;" edge="1" parent="1" source="MlZ9HkGV06P442Ydl8Ns-33" target="MlZ9HkGV06P442Ydl8Ns-37">
          <mxGeometry relative="1" as="geometry" />
        </mxCell>
        <mxCell id="MlZ9HkGV06P442Ydl8Ns-33" value="&lt;span style=&quot;font-size: 20px;&quot;&gt;&lt;b&gt;komputer&lt;/b&gt;&lt;/span&gt;" style="shape=umlActor;verticalLabelPosition=bottom;verticalAlign=top;html=1;outlineConnect=0;" vertex="1" parent="1">
          <mxGeometry x="90" y="-760" width="90" height="165" as="geometry" />
        </mxCell>
        <mxCell id="MlZ9HkGV06P442Ydl8Ns-36" value="&lt;span style=&quot;font-size: 20px;&quot;&gt;&lt;b&gt;game tebak angka&lt;/b&gt;&lt;/span&gt;" style="text;html=1;strokeColor=none;fillColor=none;align=center;verticalAlign=middle;whiteSpace=wrap;rounded=0;" vertex="1" parent="1">
          <mxGeometry x="342.5" y="-990" width="190" height="30" as="geometry" />
        </mxCell>
        <mxCell id="MlZ9HkGV06P442Ydl8Ns-37" value="" style="ellipse;whiteSpace=wrap;html=1;" vertex="1" parent="1">
          <mxGeometry x="330" y="-830" width="202.5" height="130" as="geometry" />
        </mxCell>
        <mxCell id="MlZ9HkGV06P442Ydl8Ns-68" style="edgeStyle=orthogonalEdgeStyle;rounded=0;orthogonalLoop=1;jettySize=auto;html=1;" edge="1" parent="1" source="MlZ9HkGV06P442Ydl8Ns-39" target="MlZ9HkGV06P442Ydl8Ns-44">
          <mxGeometry relative="1" as="geometry" />
        </mxCell>
        <mxCell id="MlZ9HkGV06P442Ydl8Ns-39" value="&lt;span style=&quot;font-size: 20px;&quot;&gt;&lt;b&gt;user&lt;/b&gt;&lt;/span&gt;" style="shape=umlActor;verticalLabelPosition=bottom;verticalAlign=top;html=1;outlineConnect=0;" vertex="1" parent="1">
          <mxGeometry x="710" y="-750" width="90" height="165" as="geometry" />
        </mxCell>
        <mxCell id="MlZ9HkGV06P442Ydl8Ns-44" value="" style="ellipse;whiteSpace=wrap;html=1;" vertex="1" parent="1">
          <mxGeometry x="336.25" y="-660" width="196.25" height="130" as="geometry" />
        </mxCell>
        <mxCell id="MlZ9HkGV06P442Ydl8Ns-46" value="&lt;span style=&quot;font-size: 20px;&quot;&gt;random angka&lt;/span&gt;" style="text;html=1;strokeColor=none;fillColor=none;align=center;verticalAlign=middle;whiteSpace=wrap;rounded=0;" vertex="1" parent="1">
          <mxGeometry x="358.75" y="-780" width="145" height="30" as="geometry" />
        </mxCell>
        <mxCell id="MlZ9HkGV06P442Ydl8Ns-49" value="&lt;span style=&quot;font-size: 20px;&quot;&gt;tebak angka&lt;/span&gt;" style="text;html=1;strokeColor=none;fillColor=none;align=center;verticalAlign=middle;whiteSpace=wrap;rounded=0;" vertex="1" parent="1">
          <mxGeometry x="369.38" y="-615" width="130" height="30" as="geometry" />
        </mxCell>
      </root>
    </mxGraphModel>
  </diagram>
</mxfile>
